<?xml version="1.0" encoding="UTF-8"?><svg id="a" xmlns="http://www.w3.org/2000/svg" width="32" height="32" viewBox="0 0 32 32"><defs><style>.c{fill:#635fd9;}</style></defs><path class="c" d="m9.2,32c-5.1,0-9.2-4.1-9.2-9.2v-.4c0-1.3,1.1-2.4,2.4-2.4s2.4,1.1,2.4,2.4v.4c0,2.4,2,4.4,4.4,4.4s4.4-2,4.4-4.4v-13.6C13.6,4.1,17.7,0,22.8,0s9.2,4.1,9.2,9.2v.4c0,1.3-1.1,2.4-2.4,2.4s-2.4-1.1-2.4-2.4v-.4c0-2.4-2-4.4-4.4-4.4s-4.4,2-4.4,4.4v13.6c0,5.1-4.1,9.2-9.2,9.2Z"/><path d="m20.8,18.4h-9.6c-1.3,0-2.4-1.1-2.4-2.4s1.1-2.4,2.4-2.4h9.6c1.3,0,2.4,1.1,2.4,2.4s-1.1,2.4-2.4,2.4Z"/><circle class="c" cx="2.4" cy="16" r="2.4"/></svg>